<?xml version="1.0" encoding="UTF-8"?>
<svg version="1.1" xmlns="http://www.w3.org/2000/svg" width="32" height="32">
<path d="M0 0 C10.56 0 21.12 0 32 0 C32 10.56 32 21.12 32 32 C21.44 32 10.88 32 0 32 C0 21.44 0 10.88 0 0 Z " fill="#FAFBFA" transform="translate(0,0)"/>
<path d="M0 0 C0.125 2.375 0.125 2.375 0 5 C-0.66 5.66 -1.32 6.32 -2 7 C-4.125 6.625 -4.125 6.625 -6 6 C-5.67 5.01 -5.34 4.02 -5 3 C-4.67 3.66 -4.34 4.32 -4 5 C-3.34 4.67 -2.68 4.34 -2 4 C-1.67 3.01 -1.34 2.02 -1 1 C-2.31471568 1.28151087 -3.62675767 1.57553339 -4.9375 1.875 C-5.66839844 2.03742187 -6.39929688 2.19984375 -7.15234375 2.3671875 C-9.20700294 2.82961523 -9.20700294 2.82961523 -10 5 C-10.0689472 6.37342831 -10.08467708 7.75002102 -10.0625 9.125 C-10.041875 10.40375 -10.02125 11.6825 -10 13 C-6.7 13 -3.4 13 0 13 C0.66 11.35 1.32 9.7 2 8 C3.65 8.66 5.3 9.32 7 10 C6.67 11.32 6.34 12.64 6 14 C5.360625 14.103125 4.72125 14.20625 4.0625 14.3125 C3.381875 14.539375 2.70125 14.76625 2 15 C1.67 15.99 1.34 16.98 1 18 C0.67 17.01 0.34 16.02 0 15 C-0.90492187 15.19529297 -0.90492187 15.19529297 -1.828125 15.39453125 C-4.28307433 15.81820799 -6.50850534 16.09434231 -9 16 C-12.10881029 13.49778684 -12.84827573 11.91034563 -13.5 8 C-12.88466097 4.30796584 -11.58383614 2.65983132 -9 0 C-5.93109813 -1.53445094 -3.29905734 -0.54984289 0 0 Z " fill="#393A3E" transform="translate(23,12)"/>
<path d="M0 0 C2.475 0.99 2.475 0.99 5 2 C4.67 3.32 4.34 4.64 4 6 C3.360625 6.103125 2.72125 6.20625 2.0625 6.3125 C1.381875 6.539375 0.70125 6.76625 0 7 C-0.33 7.99 -0.66 8.98 -1 10 C-2.32 8.35 -3.64 6.7 -5 5 C-4.01 5 -3.02 5 -2 5 C-1.34 3.35 -0.68 1.7 0 0 Z " fill="#575657" transform="translate(25,20)"/>
<path d="M0 0 C1.32 0.33 2.64 0.66 4 1 C4 2.65 4 4.3 4 6 C3.38125 6.28875 2.7625 6.5775 2.125 6.875 C-0.13325765 7.93720042 -0.13325765 7.93720042 -2 10 C-2.25 3.375 -2.25 3.375 0 0 Z " fill="#66696C" transform="translate(5,20)"/>
<path d="M0 0 C3 3.75 3 3.75 3 6 C5.97 6.33 8.94 6.66 12 7 C10 9 10 9 7.125 9.4375 C4 9 4 9 1.625 6.75 C0 4 0 4 0 0 Z " fill="#1C1818" transform="translate(10,19)"/>
<path d="M0 0 C2.475 0.99 2.475 0.99 5 2 C3.35 3.65 1.7 5.3 0 7 C0 4.69 0 2.38 0 0 Z " fill="#261F1E" transform="translate(3,23)"/>
</svg>
